<?xml version="1.0" encoding="UTF-8" standalone="no"?>
<svg
   xmlns:dc="http://purl.org/dc/elements/1.1/"
   xmlns:cc="http://creativecommons.org/ns#"
   xmlns:rdf="http://www.w3.org/1999/02/22-rdf-syntax-ns#"
   xmlns:svg="http://www.w3.org/2000/svg"
   xmlns="http://www.w3.org/2000/svg"
   version="1.1"
   id="svg2"
   xml:space="preserve"
   width="198.51599"
   height="65.084"
   viewBox="0 0 198.51599 65.083997"><metadata
     id="metadata8"><rdf:RDF><cc:Work
         rdf:about=""><dc:format>image/svg+xml</dc:format><dc:type
           rdf:resource="http://purl.org/dc/dcmitype/StillImage" /><dc:title></dc:title></cc:Work></rdf:RDF></metadata><defs
     id="defs6"><clipPath
       clipPathUnits="userSpaceOnUse"
       id="clipPath18"><path
         d="M 0,0 H 595.5 V 842.25 H 0 Z"
         id="path16"
         style="clip-rule:evenodd" /></clipPath><clipPath
       clipPathUnits="userSpaceOnUse"
       id="clipPath30"><path
         d="M 0,0 H 595.5 V 842.25 H 0 Z"
         id="path28"
         style="clip-rule:evenodd" /></clipPath><clipPath
       clipPathUnits="userSpaceOnUse"
       id="clipPath66"><path
         d="M 0,0 H 595.5 V 842.25 H 0 Z"
         id="path64"
         style="clip-rule:evenodd" /></clipPath><clipPath
       clipPathUnits="userSpaceOnUse"
       id="clipPath98"><path
         d="M 0,0 H 595.5 V 842.25 H 0 Z"
         id="path96"
         style="clip-rule:evenodd" /></clipPath><clipPath
       clipPathUnits="userSpaceOnUse"
       id="clipPath1602"><path
         d="m 0,770.25 h 595.5 v 72 H 0 Z"
         id="path1600"
         style="clip-rule:evenodd" /></clipPath><clipPath
       clipPathUnits="userSpaceOnUse"
       id="clipPath1616"><path
         d="M 73.5,37.5 H 168 V 72 H 73.5 Z"
         id="path1614"
         style="clip-rule:evenodd" /></clipPath><linearGradient
       id="linearGradient2451"
       spreadMethod="pad"
       gradientTransform="matrix(760.739,439.213,-439.213,760.739,-82.7316,201.339)"
       gradientUnits="userSpaceOnUse"
       y2="0"
       x2="1"
       y1="0"
       x1="0"><stop
         id="stop2437"
         offset="0"
         style="stop-opacity:1;stop-color:#f25b22" /><stop
         id="stop2439"
         offset="0.00801952"
         style="stop-opacity:1;stop-color:#f25b22" /><stop
         id="stop2441"
         offset="0.00927273"
         style="stop-opacity:1;stop-color:#f25b22" /><stop
         id="stop2443"
         offset="0.86193627"
         style="stop-opacity:1;stop-color:#ed0d84" /><stop
         id="stop2445"
         offset="0.995182"
         style="stop-opacity:1;stop-color:#ed0d84" /><stop
         id="stop2447"
         offset="0.99553853"
         style="stop-opacity:1;stop-color:#ed0d84" /><stop
         id="stop2449"
         offset="1"
         style="stop-opacity:1;stop-color:#ed0d84" /></linearGradient><linearGradient
       id="linearGradient2597"
       spreadMethod="pad"
       gradientTransform="matrix(135.75746,-220.67062,-220.67062,-135.75746,227.8676,225.20684)"
       gradientUnits="userSpaceOnUse"
       y2="0"
       x2="1"
       y1="0"
       x1="0"><stop
         id="stop2583"
         offset="0"
         style="stop-opacity:1;stop-color:#f25b22" /><stop
         id="stop2585"
         offset="0.00801952"
         style="stop-opacity:1;stop-color:#f25b22" /><stop
         id="stop2587"
         offset="0.00927273"
         style="stop-opacity:1;stop-color:#f25b22" /><stop
         id="stop2589"
         offset="0.86193627"
         style="stop-opacity:1;stop-color:#ed0d84" /><stop
         id="stop2591"
         offset="0.995182"
         style="stop-opacity:1;stop-color:#ed0d84" /><stop
         id="stop2593"
         offset="0.99553853"
         style="stop-opacity:1;stop-color:#ed0d84" /><stop
         id="stop2595"
         offset="1"
         style="stop-opacity:1;stop-color:#ed0d84" /></linearGradient><clipPath
       id="clipPath2623"
       clipPathUnits="userSpaceOnUse"><path
         id="path2621"
         d="M 65.055,697.097 H 247.09 v 84.698 H 65.055 Z" /></clipPath><clipPath
       id="clipPath2631"
       clipPathUnits="userSpaceOnUse"><path
         id="path2629"
         d="M 65.0551,781.795 H 247.09 V 697.097 H 65.0551 Z" /></clipPath><linearGradient
       id="linearGradient2657"
       spreadMethod="pad"
       gradientTransform="matrix(0,-16.179206,-16.179206,0,110.01691,762.66171)"
       gradientUnits="userSpaceOnUse"
       y2="0"
       x2="1"
       y1="0"
       x1="0"><stop
         id="stop2651"
         offset="0"
         style="stop-opacity:1;stop-color:#5e54ac" /><stop
         id="stop2653"
         offset="0.89481455"
         style="stop-opacity:1;stop-color:#4ec1f1" /><stop
         id="stop2655"
         offset="1"
         style="stop-opacity:1;stop-color:#4ec1f1" /></linearGradient><clipPath
       id="clipPath2667"
       clipPathUnits="userSpaceOnUse"><path
         id="path2665"
         d="M 65.055,697.097 H 247.09 v 84.698 H 65.055 Z" /></clipPath><clipPath
       id="clipPath2675"
       clipPathUnits="userSpaceOnUse"><path
         id="path2673"
         d="m 107.462,764.344 h 5.109 v -16.916 h -5.109 z" /></clipPath><linearGradient
       id="linearGradient2689"
       spreadMethod="pad"
       gradientTransform="matrix(-5.5979608,-3.8182687,-3.8182687,5.5979608,115.41347,759.56358)"
       gradientUnits="userSpaceOnUse"
       y2="0"
       x2="1"
       y1="0"
       x1="0"><stop
         id="stop2681"
         offset="0"
         style="stop-opacity:1;stop-color:#5a6cbd" /><stop
         id="stop2687"
         offset="1"
         style="stop-opacity:0;stop-color:#000000" /></linearGradient><linearGradient
       id="linearGradient2723"
       spreadMethod="pad"
       gradientTransform="matrix(5.2836274,-10.528386,-10.528386,-5.2836274,108.62723,767.30719)"
       gradientUnits="userSpaceOnUse"
       y2="0"
       x2="1"
       y1="0"
       x1="0"><stop
         id="stop2717"
         offset="0"
         style="stop-opacity:1;stop-color:#893fa4" /><stop
         id="stop2719"
         offset="0.62148859"
         style="stop-opacity:1;stop-color:#5a6cbd" /><stop
         id="stop2721"
         offset="1"
         style="stop-opacity:1;stop-color:#5a6cbd" /></linearGradient><linearGradient
       id="linearGradient2745"
       spreadMethod="pad"
       gradientTransform="matrix(6.6893204,-21.110419,-21.110419,-6.6893204,142.1485,766.16206)"
       gradientUnits="userSpaceOnUse"
       y2="0"
       x2="1"
       y1="0"
       x1="0"><stop
         id="stop2739"
         offset="0"
         style="stop-opacity:1;stop-color:#f9c41a" /><stop
         id="stop2741"
         offset="0.86249278"
         style="stop-opacity:1;stop-color:#e91b28" /><stop
         id="stop2743"
         offset="1"
         style="stop-opacity:1;stop-color:#e91b28" /></linearGradient><linearGradient
       id="linearGradient2765"
       spreadMethod="pad"
       gradientTransform="matrix(5.5491546,15.674937,15.674937,-5.5491546,135.13641,745.1786)"
       gradientUnits="userSpaceOnUse"
       y2="0"
       x2="1"
       y1="0"
       x1="0"><stop
         id="stop2761"
         offset="0"
         style="stop-opacity:1;stop-color:#b0d920" /><stop
         id="stop2763"
         offset="1"
         style="stop-opacity:1;stop-color:#f79119" /></linearGradient><clipPath
       id="clipPath2775"
       clipPathUnits="userSpaceOnUse"><path
         id="path2773"
         d="M 65.055,697.097 H 247.09 v 84.698 H 65.055 Z" /></clipPath><clipPath
       id="clipPath2783"
       clipPathUnits="userSpaceOnUse"><path
         id="path2781"
         d="m 137.648,763.981 h 4.984 v -11.212 h -4.984 z" /></clipPath><linearGradient
       id="linearGradient2797"
       spreadMethod="pad"
       gradientTransform="matrix(-3.2721796,-3.1643027,-3.1643027,3.2721796,143.61346,762.0564)"
       gradientUnits="userSpaceOnUse"
       y2="0"
       x2="1"
       y1="0.023258938"
       x1="0.073881447"><stop
         id="stop2789"
         offset="0"
         style="stop-opacity:1;stop-color:#f8b81b" /><stop
         id="stop2795"
         offset="1"
         style="stop-opacity:0;stop-color:#000000" /></linearGradient><linearGradient
       id="linearGradient2829"
       spreadMethod="pad"
       gradientTransform="matrix(-5.1890787,-17.34812,-17.34812,5.1890787,131.91857,766.83132)"
       gradientUnits="userSpaceOnUse"
       y2="0"
       x2="1"
       y1="0"
       x1="0"><stop
         id="stop2825"
         offset="0"
         style="stop-opacity:1;stop-color:#b0d920" /><stop
         id="stop2827"
         offset="1"
         style="stop-opacity:1;stop-color:#58c6c4" /></linearGradient><clipPath
       id="clipPath2839"
       clipPathUnits="userSpaceOnUse"><path
         id="path2837"
         d="M 65.055,697.097 H 247.09 v 84.698 H 65.055 Z" /></clipPath><clipPath
       id="clipPath2847"
       clipPathUnits="userSpaceOnUse"><path
         id="path2845"
         d="m 124.329,759.464 h 5.515 V 747.95 h -5.515 z" /></clipPath><linearGradient
       id="linearGradient2861"
       spreadMethod="pad"
       gradientTransform="matrix(3.9710406,1.479405,1.479405,-3.9710406,123.84909,752.27671)"
       gradientUnits="userSpaceOnUse"
       y2="0"
       x2="1"
       y1="0"
       x1="0"><stop
         id="stop2853"
         offset="0"
         style="stop-opacity:1;stop-color:#7dceaf" /><stop
         id="stop2859"
         offset="1"
         style="stop-opacity:0;stop-color:#000000" /></linearGradient><linearGradient
       id="linearGradient2893"
       spreadMethod="pad"
       gradientTransform="matrix(17.209334,-22.547755,-22.547755,-17.209334,108.65556,773.00047)"
       gradientUnits="userSpaceOnUse"
       y2="0"
       x2="1"
       y1="0"
       x1="0"><stop
         id="stop2889"
         offset="0"
         style="stop-opacity:1;stop-color:#50b1e7" /><stop
         id="stop2891"
         offset="1"
         style="stop-opacity:1;stop-color:#7fcfac" /></linearGradient><linearGradient
       id="linearGradient2913"
       spreadMethod="pad"
       gradientTransform="matrix(-5.1890625,-17.348064,-17.348064,5.1890625,102.20718,766.83132)"
       gradientUnits="userSpaceOnUse"
       y2="0"
       x2="1"
       y1="0"
       x1="0"><stop
         id="stop2909"
         offset="0"
         style="stop-opacity:1;stop-color:#e80b8b" /><stop
         id="stop2911"
         offset="1"
         style="stop-opacity:1;stop-color:#841b8d" /></linearGradient><clipPath
       id="clipPath2923"
       clipPathUnits="userSpaceOnUse"><path
         id="path2921"
         d="M 65.055,697.097 H 247.09 v 84.698 H 65.055 Z" /></clipPath><clipPath
       id="clipPath2931"
       clipPathUnits="userSpaceOnUse"><path
         id="path2929"
         d="m 94.617,759.464 h 5.516 V 747.95 h -5.516 z" /></clipPath><linearGradient
       id="linearGradient2945"
       spreadMethod="pad"
       gradientTransform="matrix(3.971199,1.4794639,1.4794639,-3.971199,94.137709,752.27668)"
       gradientUnits="userSpaceOnUse"
       y2="0"
       x2="1"
       y1="0"
       x1="0"><stop
         id="stop2937"
         offset="0"
         style="stop-opacity:1;stop-color:#91198d" /><stop
         id="stop2943"
         offset="1"
         style="stop-opacity:0;stop-color:#000000" /></linearGradient><linearGradient
       id="linearGradient2979"
       spreadMethod="pad"
       gradientTransform="matrix(17.209359,-22.547786,-22.547786,-17.209359,78.944206,773.00056)"
       gradientUnits="userSpaceOnUse"
       y2="0"
       x2="1"
       y1="0"
       x1="0"><stop
         id="stop2973"
         offset="0"
         style="stop-opacity:1;stop-color:#4a2a8a" /><stop
         id="stop2975"
         offset="0.37851141"
         style="stop-opacity:1;stop-color:#4a2a8a" /><stop
         id="stop2977"
         offset="1"
         style="stop-opacity:1;stop-color:#95188d" /></linearGradient><linearGradient
       id="linearGradient3001"
       spreadMethod="pad"
       gradientTransform="matrix(0,-14.297231,-14.297231,0,91.220795,740.13535)"
       gradientUnits="userSpaceOnUse"
       y2="0"
       x2="1"
       y1="0"
       x1="0"><stop
         id="stop2995"
         offset="0"
         style="stop-opacity:1;stop-color:#444343" /><stop
         id="stop2997"
         offset="0.23446549"
         style="stop-opacity:1;stop-color:#1c1b1a" /><stop
         id="stop2999"
         offset="1"
         style="stop-opacity:1;stop-color:#1c1b1a" /></linearGradient><linearGradient
       id="linearGradient3023"
       spreadMethod="pad"
       gradientTransform="matrix(0,-14.297231,-14.297231,0,103.68243,740.13535)"
       gradientUnits="userSpaceOnUse"
       y2="0"
       x2="1"
       y1="0"
       x1="0"><stop
         id="stop3017"
         offset="0"
         style="stop-opacity:1;stop-color:#444343" /><stop
         id="stop3019"
         offset="0.23446549"
         style="stop-opacity:1;stop-color:#1c1b1a" /><stop
         id="stop3021"
         offset="1"
         style="stop-opacity:1;stop-color:#1c1b1a" /></linearGradient><linearGradient
       id="linearGradient3045"
       spreadMethod="pad"
       gradientTransform="matrix(0,-14.297227,-14.297227,0,116.46413,740.13532)"
       gradientUnits="userSpaceOnUse"
       y2="0"
       x2="1"
       y1="0"
       x1="0"><stop
         id="stop3039"
         offset="0"
         style="stop-opacity:1;stop-color:#444343" /><stop
         id="stop3041"
         offset="0.23446549"
         style="stop-opacity:1;stop-color:#1c1b1a" /><stop
         id="stop3043"
         offset="1"
         style="stop-opacity:1;stop-color:#1c1b1a" /></linearGradient><linearGradient
       id="linearGradient3067"
       spreadMethod="pad"
       gradientTransform="matrix(0,-14.297231,-14.297231,0,131.30416,740.13535)"
       gradientUnits="userSpaceOnUse"
       y2="0"
       x2="1"
       y1="0"
       x1="0"><stop
         id="stop3061"
         offset="0"
         style="stop-opacity:1;stop-color:#444343" /><stop
         id="stop3063"
         offset="0.23446549"
         style="stop-opacity:1;stop-color:#1c1b1a" /><stop
         id="stop3065"
         offset="1"
         style="stop-opacity:1;stop-color:#1c1b1a" /></linearGradient><linearGradient
       id="linearGradient3089"
       spreadMethod="pad"
       gradientTransform="matrix(0,-14.297231,-14.297231,0,146.79424,740.13535)"
       gradientUnits="userSpaceOnUse"
       y2="0"
       x2="1"
       y1="0"
       x1="0"><stop
         id="stop3083"
         offset="0"
         style="stop-opacity:1;stop-color:#444343" /><stop
         id="stop3085"
         offset="0.23446549"
         style="stop-opacity:1;stop-color:#1c1b1a" /><stop
         id="stop3087"
         offset="1"
         style="stop-opacity:1;stop-color:#1c1b1a" /></linearGradient><linearGradient
       id="linearGradient3111"
       spreadMethod="pad"
       gradientTransform="matrix(0,-14.297227,-14.297227,0,162.68375,740.13532)"
       gradientUnits="userSpaceOnUse"
       y2="0"
       x2="1"
       y1="0"
       x1="0"><stop
         id="stop3105"
         offset="0"
         style="stop-opacity:1;stop-color:#444343" /><stop
         id="stop3107"
         offset="0.23446549"
         style="stop-opacity:1;stop-color:#1c1b1a" /><stop
         id="stop3109"
         offset="1"
         style="stop-opacity:1;stop-color:#1c1b1a" /></linearGradient><linearGradient
       id="linearGradient3133"
       spreadMethod="pad"
       gradientTransform="matrix(0,-14.297231,-14.297231,0,177.20421,740.13535)"
       gradientUnits="userSpaceOnUse"
       y2="0"
       x2="1"
       y1="0"
       x1="0"><stop
         id="stop3127"
         offset="0"
         style="stop-opacity:1;stop-color:#444343" /><stop
         id="stop3129"
         offset="0.23446549"
         style="stop-opacity:1;stop-color:#1c1b1a" /><stop
         id="stop3131"
         offset="1"
         style="stop-opacity:1;stop-color:#1c1b1a" /></linearGradient><linearGradient
       id="linearGradient3155"
       spreadMethod="pad"
       gradientTransform="matrix(0,-14.297227,-14.297227,0,190.18578,740.13532)"
       gradientUnits="userSpaceOnUse"
       y2="0"
       x2="1"
       y1="0"
       x1="0"><stop
         id="stop3149"
         offset="0"
         style="stop-opacity:1;stop-color:#444343" /><stop
         id="stop3151"
         offset="0.23446549"
         style="stop-opacity:1;stop-color:#1c1b1a" /><stop
         id="stop3153"
         offset="1"
         style="stop-opacity:1;stop-color:#1c1b1a" /></linearGradient><linearGradient
       id="linearGradient3177"
       spreadMethod="pad"
       gradientTransform="matrix(0,-14.297227,-14.297227,0,205.93539,740.13532)"
       gradientUnits="userSpaceOnUse"
       y2="0"
       x2="1"
       y1="0"
       x1="0"><stop
         id="stop3171"
         offset="0"
         style="stop-opacity:1;stop-color:#444343" /><stop
         id="stop3173"
         offset="0.23446549"
         style="stop-opacity:1;stop-color:#1c1b1a" /><stop
         id="stop3175"
         offset="1"
         style="stop-opacity:1;stop-color:#1c1b1a" /></linearGradient><linearGradient
       id="linearGradient3199"
       spreadMethod="pad"
       gradientTransform="matrix(0,-14.297231,-14.297231,0,220.05609,740.13535)"
       gradientUnits="userSpaceOnUse"
       y2="0"
       x2="1"
       y1="0"
       x1="0"><stop
         id="stop3193"
         offset="0"
         style="stop-opacity:1;stop-color:#444343" /><stop
         id="stop3195"
         offset="0.23446549"
         style="stop-opacity:1;stop-color:#1c1b1a" /><stop
         id="stop3197"
         offset="1"
         style="stop-opacity:1;stop-color:#1c1b1a" /></linearGradient><clipPath
       id="clipPath3209"
       clipPathUnits="userSpaceOnUse"><path
         id="path3207"
         d="M 65.055,697.097 H 247.09 v 84.698 H 65.055 Z" /></clipPath></defs><g
     id="g10"
     transform="matrix(1.3333333,0,0,1.3333333,-266.77501,-889.22076)"><g
       transform="matrix(1,0,0,-1,323.67485,1663.8151)"
       id="g2435"><g
         id="g2639"
         transform="translate(-204.97859,226.42251)"><g
           id="g2641"><g
             id="g2647"><g
               id="g2649"><path
                 id="path2659"
                 style="fill:url(#linearGradient2657);stroke:none"
                 d="M 107.462,766.723 V 745.51 h 5.109 v 19.689 c -0.276,0.884 -1.09,1.524 -2.051,1.524 v 0 z" /></g></g></g></g><g
         id="g2661"
         transform="translate(-204.97859,226.42251)"><g
           clip-path="url(#clipPath2667)"
           id="g2663"><g
             id="g2669"><g
               id="g2671" /><g
               id="g2703"><g
                 id="g2701"
                 clip-path="url(#clipPath2675)"><g
                   id="g2699"><g
                     id="g2697"><g
                       id="g2695"><g
                         id="g2693"><path
                           id="path2691"
                           style="fill:url(#linearGradient2689);stroke:none"
                           d="m 107.463,764.338 v -7.741 c 1.748,0.787 3.776,-5.376 3.776,-5.376 v 0 l 1.332,-3.793 v 16.916 z" /></g></g></g></g></g></g></g></g></g><g
         id="g2705"
         transform="translate(-204.97859,226.42251)"><g
           id="g2707"><g
             id="g2713"><g
               id="g2715"><path
                 id="path2725"
                 style="fill:url(#linearGradient2723);stroke:none"
                 d="m 107.462,766.723 v -2.909 c 1.667,1.25 3.696,-4.916 3.696,-4.916 v 0 l 1.413,-4.025 v 0 4.85 5.476 c -0.266,0.851 -1.031,1.478 -1.947,1.528 v 0 z" /></g></g></g></g><g
         id="g2727"
         transform="translate(-204.97859,226.42251)"><g
           id="g2729"><g
             id="g2735"><g
               id="g2737"><path
                 id="path2747"
                 style="fill:url(#linearGradient2745);stroke:none"
                 d="m 138.939,763.814 c 1.476,1.109 3.238,-3.61 3.619,-4.694 v 0 l 0.077,-0.222 4.465,-13.388 h 5.545 10e-4 l -6.935,19.922 c -0.329,0.744 -1.052,1.265 -1.9,1.289 v 0 l -3.866,0.002 z" /></g></g></g></g><g
         id="g2749"
         transform="translate(-204.97859,226.42251)"><g
           id="g2751"><g
             id="g2757"><g
               id="g2759"><path
                 id="path2767"
                 style="fill:url(#linearGradient2765);stroke:none"
                 d="m 138.939,763.814 -6.351,-18.304 h 0.002 5.458 l 4.527,13.395 h 0.057 l -0.074,0.215 c -0.341,0.971 -1.792,4.86 -3.152,4.861 v 0 c -0.157,0 -0.314,-0.052 -0.467,-0.167" /></g></g></g></g><g
         id="g2769"
         transform="translate(-204.97859,226.42251)"><g
           clip-path="url(#clipPath2775)"
           id="g2771"><g
             id="g2777"><g
               id="g2779" /><g
               id="g2811"><g
                 id="g2809"
                 clip-path="url(#clipPath2783)"><g
                   id="g2807"><g
                     id="g2805"><g
                       id="g2803"><g
                         id="g2801"><path
                           id="path2799"
                           style="fill:url(#linearGradient2797);stroke:none"
                           d="m 139.395,763.981 c -0.154,-0.002 -0.307,-0.055 -0.457,-0.167 v 0 l -1.29,-3.716 c 0.741,-1.212 1.343,-2.836 1.547,-3.418 v 0 l 0.075,-0.222 1.232,-3.689 2.073,6.136 h 0.057 l -0.074,0.215 c -0.34,0.97 -1.784,4.841 -3.141,4.861 v 0 z" /></g></g></g></g></g></g></g></g></g><g
         id="g2813"
         transform="translate(-204.97859,226.42251)"><g
           id="g2815"><g
             id="g2821"><g
               id="g2823"><path
                 id="path2831"
                 style="fill:url(#linearGradient2829);stroke:none"
                 d="m 129.445,766.723 -4.527,-13.395 h -0.057 l 0.073,-0.215 c 0.382,-1.085 2.143,-5.802 3.62,-4.694 v 0 l 6.351,18.304 z" /></g></g></g></g><g
         id="g2833"
         transform="translate(-204.97859,226.42251)"><g
           clip-path="url(#clipPath2839)"
           id="g2835"><g
             id="g2841"><g
               id="g2843" /><g
               id="g2875"><g
                 id="g2873"
                 clip-path="url(#clipPath2847)"><g
                   id="g2871"><g
                     id="g2869"><g
                       id="g2867"><g
                         id="g2865"><path
                           id="path2863"
                           style="fill:url(#linearGradient2861);stroke:none"
                           d="m 124.917,753.327 h -0.056 l -0.001,0.003 -0.531,-1.742 1.266,-3.638 2.8,0.004 1.45,4.18 c -0.742,1.213 -1.343,2.837 -1.546,3.42 v 0 l -0.077,0.22 -1.23,3.69 z" /></g></g></g></g></g></g></g></g></g><g
         id="g2877"
         transform="translate(-204.97859,226.42251)"><g
           id="g2879"><g
             id="g2885"><g
               id="g2887"><path
                 id="path2895"
                 style="fill:url(#linearGradient2893);stroke:none"
                 d="m 114.846,766.723 6.937,-19.922 c 0.328,-0.744 1.051,-1.266 1.9,-1.29 v 0 l 3.864,-10e-4 1.007,2.909 c -1.477,-1.108 -3.238,3.609 -3.62,4.694 v 0 l -0.076,0.221 -4.465,13.389 z" /></g></g></g></g><g
         id="g2897"
         transform="translate(-204.97859,226.42251)"><g
           id="g2899"><g
             id="g2905"><g
               id="g2907"><path
                 id="path2915"
                 style="fill:url(#linearGradient2913);stroke:none"
                 d="M 99.734,766.723 95.206,753.328 H 95.15 l 0.073,-0.215 c 0.381,-1.085 2.143,-5.802 3.62,-4.694 v 0 l 6.35,18.304 z" /></g></g></g></g><g
         id="g2917"
         transform="translate(-204.97859,226.42251)"><g
           clip-path="url(#clipPath2923)"
           id="g2919"><g
             id="g2925"><g
               id="g2927" /><g
               id="g2959"><g
                 id="g2957"
                 clip-path="url(#clipPath2931)"><g
                   id="g2955"><g
                     id="g2953"><g
                       id="g2951"><g
                         id="g2949"><path
                           id="path2947"
                           style="fill:url(#linearGradient2945);stroke:none"
                           d="M 95.206,753.327 H 95.15 l -0.001,0.003 -0.532,-1.742 1.267,-3.638 2.8,0.004 1.449,4.178 v 0.004 c -0.741,1.212 -1.342,2.835 -1.546,3.418 v 0 l -0.077,0.22 -1.23,3.69 z" /></g></g></g></g></g></g></g></g></g><g
         id="g2961"
         transform="translate(-204.97859,226.42251)"><g
           id="g2963"><g
             id="g2969"><g
               id="g2971"><path
                 id="path2981"
                 style="fill:url(#linearGradient2979);stroke:none"
                 d="m 85.135,766.723 6.936,-19.922 c 0.329,-0.744 1.051,-1.266 1.9,-1.29 v 0 l 3.865,-10e-4 1.006,2.909 c -1.476,-1.108 -3.238,3.609 -3.619,4.694 v 0 l -0.076,0.221 -4.466,13.389 z" /></g></g></g></g><g
         id="g2983"
         transform="translate(-204.97859,226.42251)"><g
           id="g2985"
           style="fill:#4b4b4b;fill-opacity:1"><g
             id="g2991"
             style="fill:#4b4b4b;fill-opacity:1"><g
               id="g2993"
               style="fill:#4b4b4b;fill-opacity:1"><path
                 id="path3003"
                 style="fill:#4b4b4b;fill-opacity:1;stroke:none"
                 d="m 85.135,740.179 v -3.047 h 4.337 v -11.476 h 3.497 v 11.476 h 4.337 v 3.047 z" /></g></g></g></g><g
         id="g3005"
         transform="translate(-204.97859,226.42251)"
         style="fill:#4b4b4b;fill-opacity:1"><g
           id="g3007"
           style="fill:#4b4b4b;fill-opacity:1"><g
             id="g3013"
             style="fill:#4b4b4b;fill-opacity:1"><g
               id="g3015"
               style="fill:#4b4b4b;fill-opacity:1"><path
                 id="path3025"
                 style="fill:#4b4b4b;fill-opacity:1;stroke:none"
                 d="m 99.066,740.179 v -14.523 h 9.234 v 3.048 h -5.737 v 2.741 h 4.357 v 3.047 h -4.357 v 2.64 h 5.457 v 3.047 z" /></g></g></g></g><g
         id="g3027"
         transform="translate(-204.97859,226.42251)"
         style="fill:#4b4b4b;fill-opacity:1"><g
           id="g3029"
           style="fill:#4b4b4b;fill-opacity:1"><g
             id="g3035"
             style="fill:#4b4b4b;fill-opacity:1"><g
               id="g3037"
               style="fill:#4b4b4b;fill-opacity:1"><path
                 id="path3047"
                 style="fill:#4b4b4b;fill-opacity:1;stroke:none"
                 d="m 109.839,732.948 c 0,-4.305 3.017,-7.534 7.494,-7.534 v 0 c 3.739,0 5.757,2.437 5.757,2.437 v 0 l -1.799,2.6 c 0,0 -1.639,-1.789 -3.798,-1.789 v 0 c -2.638,0 -4.037,2.215 -4.037,4.367 v 0 c 0,2.093 1.299,4.143 4.037,4.143 v 0 c 1.979,0 3.579,-1.481 3.579,-1.481 v 0 l 1.619,2.68 c 0,0 -1.82,2.051 -5.358,2.051 v 0 c -4.297,0 -7.494,-3.25 -7.494,-7.474" /></g></g></g></g><g
         id="g3049"
         transform="translate(-204.97859,226.42251)"
         style="fill:#4b4b4b;fill-opacity:1"><g
           id="g3051"
           style="fill:#4b4b4b;fill-opacity:1"><g
             id="g3057"
             style="fill:#4b4b4b;fill-opacity:1"><g
               id="g3059"
               style="fill:#4b4b4b;fill-opacity:1"><path
                 id="path3069"
                 style="fill:#4b4b4b;fill-opacity:1;stroke:none"
                 d="m 133.902,740.179 v -5.809 h -5.196 v 5.809 h -3.497 v -14.523 h 3.497 v 5.688 h 5.196 v -5.688 h 3.498 v 14.523 z" /></g></g></g></g><g
         id="g3071"
         transform="translate(-204.97859,226.42251)"
         style="fill:#4b4b4b;fill-opacity:1"><g
           id="g3073"
           style="fill:#4b4b4b;fill-opacity:1"><g
             id="g3079"
             style="fill:#4b4b4b;fill-opacity:1"><g
               id="g3081"
               style="fill:#4b4b4b;fill-opacity:1"><path
                 id="path3091"
                 style="fill:#4b4b4b;fill-opacity:1;stroke:none"
                 d="m 149.332,740.179 v -6.783 c 0,-0.915 0.16,-2.478 0.16,-2.478 v 0 h -0.04 c 0,0 -0.64,1.523 -1.199,2.478 v 0 l -3.957,6.783 h -3.538 v -14.523 h 3.499 v 6.765 c 0,0.913 -0.161,2.477 -0.161,2.477 v 0 h 0.04 c 0,0 0.64,-1.522 1.199,-2.477 v 0 l 3.977,-6.765 h 3.518 v 14.523 z" /></g></g></g></g><g
         id="g3093"
         transform="translate(-204.97859,226.42251)"
         style="fill:#4b4b4b;fill-opacity:1"><g
           id="g3095"
           style="fill:#4b4b4b;fill-opacity:1"><g
             id="g3101"
             style="fill:#4b4b4b;fill-opacity:1"><g
               id="g3103"
               style="fill:#4b4b4b;fill-opacity:1"><path
                 id="path3113"
                 style="fill:#4b4b4b;fill-opacity:1;stroke:none"
                 d="m 155.21,733.009 c 0,-4.265 3.157,-7.595 7.474,-7.595 v 0 c 4.316,0 7.474,3.33 7.474,7.595 v 0 c 0,4.163 -3.158,7.413 -7.474,7.413 v 0 c -4.317,0 -7.474,-3.25 -7.474,-7.413 m 3.617,0 c 0,2.376 1.719,4.163 3.857,4.163 v 0 c 2.138,0 3.857,-1.787 3.857,-4.163 v 0 c 0,-2.477 -1.719,-4.347 -3.857,-4.347 v 0 c -2.138,0 -3.857,1.87 -3.857,4.347" /></g></g></g></g><g
         id="g3115"
         transform="translate(-204.97859,226.42251)"
         style="fill:#4b4b4b;fill-opacity:1"><g
           id="g3117"
           style="fill:#4b4b4b;fill-opacity:1"><g
             id="g3123"
             style="fill:#4b4b4b;fill-opacity:1"><g
               id="g3125"
               style="fill:#4b4b4b;fill-opacity:1"><path
                 id="path3135"
                 style="fill:#4b4b4b;fill-opacity:1;stroke:none"
                 d="m 172.538,740.179 v -14.523 h 9.333 v 3.048 h -5.836 v 11.475 z" /></g></g></g></g><g
         id="g3137"
         transform="translate(-204.97859,226.42251)"
         style="fill:#4b4b4b;fill-opacity:1"><g
           id="g3139"
           style="fill:#4b4b4b;fill-opacity:1"><g
             id="g3145"
             style="fill:#4b4b4b;fill-opacity:1"><g
               id="g3147"
               style="fill:#4b4b4b;fill-opacity:1"><path
                 id="path3157"
                 style="fill:#4b4b4b;fill-opacity:1;stroke:none"
                 d="m 182.711,733.009 c 0,-4.265 3.158,-7.595 7.475,-7.595 v 0 c 4.317,0 7.475,3.33 7.475,7.595 v 0 c 0,4.163 -3.158,7.413 -7.475,7.413 v 0 c -4.317,0 -7.475,-3.25 -7.475,-7.413 m 3.618,0 c 0,2.376 1.718,4.163 3.857,4.163 v 0 c 2.138,0 3.857,-1.787 3.857,-4.163 v 0 c 0,-2.477 -1.719,-4.347 -3.857,-4.347 v 0 c -2.139,0 -3.857,1.87 -3.857,4.347" /></g></g></g></g><g
         id="g3159"
         transform="translate(-204.97859,226.42251)"
         style="fill:#4b4b4b;fill-opacity:1"><g
           id="g3161"
           style="fill:#4b4b4b;fill-opacity:1"><g
             id="g3167"
             style="fill:#4b4b4b;fill-opacity:1"><g
               id="g3169"
               style="fill:#4b4b4b;fill-opacity:1"><path
                 id="path3179"
                 style="fill:#4b4b4b;fill-opacity:1;stroke:none"
                 d="m 199.08,732.948 c 0,-4.752 3.358,-7.534 7.015,-7.534 v 0 c 2.379,0 3.758,1.259 3.758,1.259 v 0 h 0.039 c 0,0 -0.02,-0.305 -0.02,-0.61 v 0 -0.407 h 2.919 v 8.207 h -5.118 v -3.026 h 2.02 v -1.118 c 0,0 -1.219,-1.057 -2.897,-1.057 v 0 c -2.22,0 -4.099,1.647 -4.099,4.409 v 0 c 0,2.153 1.22,4.101 4.218,4.101 v 0 c 2.018,0 3.478,-1.34 3.478,-1.34 v 0 l 1.679,2.661 c 0,0 -1.839,1.929 -5.498,1.929 v 0 c -4.356,0 -7.494,-3.25 -7.494,-7.474" /></g></g></g></g><g
         id="g3181"
         transform="translate(-204.97859,226.42251)"
         style="fill:#4b4b4b;fill-opacity:1"><g
           id="g3183"
           style="fill:#4b4b4b;fill-opacity:1"><g
             id="g3189"
             style="fill:#4b4b4b;fill-opacity:1"><g
               id="g3191"
               style="fill:#4b4b4b;fill-opacity:1"><path
                 id="path3201"
                 style="fill:#4b4b4b;fill-opacity:1;stroke:none"
                 d="m 222.544,740.179 -1.599,-3.494 c -0.459,-0.994 -0.859,-2.092 -0.859,-2.092 v 0 h -0.04 c 0,0 -0.4,1.098 -0.86,2.092 v 0 l -1.618,3.494 h -3.977 l 4.717,-8.571 v -5.952 h 3.497 v 5.952 l 4.717,8.571 z" /></g></g></g></g></g></g></svg>